<?xml version="1.0" encoding="iso-8859-1"?>
<!-- Generator: Adobe Illustrator 19.0.0, SVG Export Plug-In . SVG Version: 6.00 Build 0)  -->
<svg version="1.1" id="Layer_1" xmlns="http://www.w3.org/2000/svg" xmlns:xlink="http://www.w3.org/1999/xlink" x="0px" y="0px"
	 viewBox="0 0 236.812 236.812" style="enable-background:new 0 0 236.812 236.812;" xml:space="preserve">
<g>
	<path style="fill:#FF931E;" d="M187.304,83.512c55.093,2.383,56.514,74.94,29.013,114.174
		c-34.238,48.906-103.082,41.709-154.829,32.359c-23.742-4.263-40.472-14.346-48.539-37.905
		c-10.084-29.747-9.992-65.452-9.992-96.344c0.046-24.063-0.504-53.902,16.317-73.29C35.683,3.622,64.925,0.093,88.484,0.001
		c24.842-0.092,55.552,4.446,75.49,20.442C182.858,35.615,185.15,60.732,187.304,83.512z M165.257,175.09
		c31.947-17.784-2.062-33.643-16.821-36.072c-7.792-1.283-17.371-0.55-25.301-0.733c-16.821-0.321-33.688,0.046-50.464-1.558
		c-18.105,7.379-14.209,32.13,10.175,39.097c7.517,2.154,16.409,1.421,24.201,1.742C122.539,178.206,151.278,182.882,165.257,175.09
		z M116.902,86.216c15.905-5.5,16.546-25.759,1.421-31.855c-5.271-2.108-11.55-2.796-17.188-3.163
		c-13.475-0.871-33.184,1.833-36.851,17.83c-2.842,12.284,5.409,17.83,14.942,20.947C91.647,91.854,105.076,90.341,116.902,86.216z"
		/>
</g>
<g>
</g>
<g>
</g>
<g>
</g>
<g>
</g>
<g>
</g>
<g>
</g>
<g>
</g>
<g>
</g>
<g>
</g>
<g>
</g>
<g>
</g>
<g>
</g>
<g>
</g>
<g>
</g>
<g>
</g>
</svg>
